<svg xmlns="http://www.w3.org/2000/svg" version="1.1" xmlns:xlink="http://www.w3.org/1999/xlink" xmlns:svgjs="http://svgjs.dev/svgjs" width="2000" height="2250" viewBox="0 0 2000 2250"><g transform="matrix(1,0,0,1,0,0)"><svg viewBox="0 0 320 360" data-background-color="#ffffff" preserveAspectRatio="xMidYMid meet" height="2250" width="2000" xmlns="http://www.w3.org/2000/svg" xmlns:xlink="http://www.w3.org/1999/xlink"><g id="tight-bounds" transform="matrix(1,0,0,1,0,0)"><svg viewBox="0 0 320 360" height="360" width="320"><g><svg></svg></g><g><svg viewBox="0 0 320 360" height="360" width="320"><g><path xmlns="http://www.w3.org/2000/svg" d="M320 141.95l-19.957-19.957v-28.224l-53.812-53.812h-28.223l-19.958-19.957h-76.1l-19.957 19.957h-28.224l-53.812 53.812v28.224l-19.957 19.957v76.104l19.957 19.958v28.223l53.816 53.808h28.224l19.957 19.957h76.104l19.958-19.957h28.223l53.812-53.812v-28.224l19.949-19.957zM244.374 44.437l51.189 51.189v21.887l-73.076-73.076zM295.563 123.849v112.306l-79.408 79.408h-112.306l-79.412-79.412v-112.302l79.412-79.412h112.306zM123.807 24.48h72.39l15.478 15.477h-103.346zM24.437 95.626l51.189-51.189h21.887l-73.076 73.076zM4.484 216.197v-72.394l15.477-15.478v103.342zM75.626 315.563l-51.189-51.189v-21.887l73.076 73.076zM196.197 335.52h-72.39l-15.478-15.477h103.342zM295.563 264.374l-51.189 51.189h-21.887l73.076-73.076zM315.52 216.197l-15.477 15.478v-103.346l15.477 15.478z" fill="#ffffff" fill-rule="nonzero" stroke="none" stroke-width="1" stroke-linecap="butt" stroke-linejoin="miter" stroke-miterlimit="10" stroke-dasharray="" stroke-dashoffset="0" font-family="none" font-weight="none" font-size="none" text-anchor="none" style="mix-blend-mode: normal" data-fill-palette-color="tertiary"></path></g><g transform="matrix(1,0,0,1,56.88971975554752,90)"><svg viewBox="0 0 206.22056048890497 180" height="180" width="206.22056048890497"><g><svg viewBox="0 0 206.22056048890497 180" height="180" width="206.22056048890497"><g><svg viewBox="0 0 208 181.5531870888031" height="180" width="206.22056048890497"><g transform="matrix(1,0,0,1,0,109.73410269829014)"><svg viewBox="0 0 208 71.81908439051297" height="71.81908439051297" width="208"><g id="textblocktransform"><svg viewBox="0 0 208 71.81908439051297" height="71.81908439051297" width="208" id="textblock"><g><svg viewBox="0 0 208 71.81908439051297" height="71.81908439051297" width="208"><g transform="matrix(1,0,0,1,0,0)"><svg width="208" viewBox="0.5400000214576721 -30.489999771118164 88.5199966430664 30.559999465942383" height="71.81908439051297" data-palette-color="#000000"><path d="M2.39 0.07Q1.42 0.07 0.98-0.11 0.54-0.29 0.54-0.66L0.54-0.66Q0.54-0.83 0.66-1.25L0.66-1.25 10.94-29.79Q11.18-30.49 12.67-30.49L12.67-30.49 13.94-30.49Q15.43-30.49 15.67-29.79L15.67-29.79 25.95-1.22Q26.07-0.95 26.07-0.66L26.07-0.66Q26.07 0.07 24.24 0.07L24.24 0.07 23.88 0.07Q22.36 0.07 22.12-0.61L22.12-0.61 19.58-7.74 6.84-7.74 4.35-0.61Q4.13 0.07 2.61 0.07L2.61 0.07 2.39 0.07ZM8.03-11.04L18.41-11.04 13.87-23.95Q13.67-24.49 13.55-25.17 13.43-25.85 13.33-26.49L13.33-26.49 13.23-26.49Q12.94-24.85 12.57-23.95L12.57-23.95 8.03-11.04ZM32.27 0.07Q31.35 0.07 30.93-0.16 30.52-0.39 30.52-0.88L30.52-0.88 30.52-29.52Q30.52-30.49 32.27-30.49L32.27-30.49 33.81-30.49Q35.25-30.49 35.64-29.69L35.64-29.69 43.85-15.45 44.97-12.72 46.09-15.21 54.32-29.69Q54.73-30.49 56.13-30.49L56.13-30.49 57.57-30.49Q59.3-30.49 59.3-29.52L59.3-29.52 59.3-0.88Q59.3 0.07 57.57 0.07L57.57 0.07 57.27 0.07Q56.35 0.07 55.93-0.16 55.52-0.39 55.52-0.88L55.52-0.88 55.52-24.24 55.44-24.05 46.8-9.03Q46.63-8.74 46.41-8.61 46.19-8.47 45.85-8.47L45.85-8.47 44.11-8.47Q43.45-8.47 43.14-9.03L43.14-9.03 34.3-24.49 34.3-0.88Q34.3 0.07 32.57 0.07L32.57 0.07 32.27 0.07ZM75.9 0.07Q74.38 0.07 74.16-0.61L74.16-0.61 64.23-29.17Q64.08-29.47 64.08-29.74L64.08-29.74Q64.08-30.08 64.56-30.29 65.03-30.49 65.96-30.49L65.96-30.49 66.35-30.49Q67.84-30.49 68.09-29.79L68.09-29.79 76.12-6.62 76.56-4.35 76.68-4.35 77.17-6.67 85.18-29.79Q85.44-30.49 86.93-30.49L86.93-30.49 87.18-30.49Q89.06-30.49 89.06-29.74L89.06-29.74Q89.06-29.49 88.91-29.13L88.91-29.13 78.97-0.61Q78.75 0.07 77.24 0.07L77.24 0.07 75.9 0.07Z" opacity="1" transform="matrix(1,0,0,1,0,0)" fill="#ffffff" class="wordmark-text-0" data-fill-palette-color="primary" id="text-0"></path></svg></g></svg></g></svg></g></svg></g><g transform="matrix(1,0,0,1,45.60956938720725,0)"><svg viewBox="0 0 116.7808612255855 99.25397462768893" height="99.25397462768893" width="116.7808612255855"><g><svg xmlns="http://www.w3.org/2000/svg" data-name="Layer 1" viewBox="1.7599676847457886 9 96.48007202148438 82" x="0" y="0" height="99.25397462768893" width="116.7808612255855" class="icon-icon-0" data-fill-palette-color="accent" id="icon-0"><path d="M92.07 9H7.93a6.17 6.17 0 0 0-6.17 6.17V84.81A6.17 6.17 0 0 0 7.93 91H92.07a6.17 6.17 0 0 0 6.17-6.17V15.19A6.17 6.17 0 0 0 92.07 9Zm-50 8.07h0a4.26 4.26 0 0 1 0 8.53h0a4.26 4.26 0 0 1 0-8.53Zm-12.39 0h0a4.26 4.26 0 0 1 0 8.53h0a4.26 4.26 0 0 1 0-8.53Zm-12.39 0h0a4.26 4.26 0 0 1 0 8.53h0a4.26 4.26 0 0 1 0-8.53ZM85.9 48.31V78.64H14.1V33.7H85.9ZM33.58 59.51l2.83 0.5a14.71 14.71 0 0 0 1.46 3.53l-1.65 2.35a2.18 2.18 0 0 0 0.24 2.79l1.7 1.7a2.18 2.18 0 0 0 2.79 0.24L43.3 69a14.65 14.65 0 0 0 3.53 1.46l0.5 2.83a2.18 2.18 0 0 0 2.14 1.8h2.4A2.18 2.18 0 0 0 54 73.26l0.5-2.83A14.62 14.62 0 0 0 58 69l2.35 1.65a2.18 2.18 0 0 0 2.79-0.24l1.7-1.7a2.18 2.18 0 0 0 0.24-2.79l-1.65-2.36A14.68 14.68 0 0 0 64.94 60l2.83-0.5a2.18 2.18 0 0 0 1.8-2.14V55a2.18 2.18 0 0 0-1.8-2.14l-2.83-0.5a14.66 14.66 0 0 0-1.46-3.53l1.65-2.35a2.18 2.18 0 0 0-0.24-2.79L63.18 42a2.18 2.18 0 0 0-2.79-0.24L58 43.37a14.65 14.65 0 0 0-3.53-1.46L54 39.07a2.18 2.18 0 0 0-2.14-1.8h-2.4a2.18 2.18 0 0 0-2.14 1.8l-0.5 2.83a14.69 14.69 0 0 0-3.53 1.46l-2.35-1.65a2.18 2.18 0 0 0-2.79 0.24l-1.7 1.7a2.18 2.18 0 0 0-0.24 2.79l1.65 2.35a14.7 14.7 0 0 0-1.46 3.53l-2.83 0.5A2.18 2.18 0 0 0 31.78 55v2.4A2.18 2.18 0 0 0 33.58 59.51Zm17.1-9.87a6.53 6.53 0 1 1-6.53 6.53A6.53 6.53 0 0 1 50.67 49.64Z" fill="#ffffff" data-fill-palette-color="accent"></path></svg></g></svg></g><g></g></svg></g></svg></g></svg></g></svg></g><defs></defs></svg><rect width="320" height="360" fill="none" stroke="none" visibility="hidden"></rect></g></svg></g></svg>